<svg xmlns="http://www.w3.org/2000/svg" viewBox="0 0 150 32.01"><defs><style>.cls-1{fill:none;}.cls-2{fill:#333;fill-rule:evenodd;}</style></defs><g id="Layer_2" data-name="Layer 2"><g id="Layer_1-2" data-name="Layer 1"><path class="cls-1" d="M0,0V32H150V0ZM127.2,10.9V27.38h-5.11V10.9Zm-5.11-2.43v-4h5.11v4Zm-81,15.13a3.82,3.82,0,0,1-1.34,1,3.93,3.93,0,0,1-3.33,0,3.77,3.77,0,0,1-1.35-1c-.7-.92-1.12-1.93-1.12-7.66s.42-6.78,1.12-7.7a4,4,0,0,1,6,0c.69.92,1.13,2,1.13,7.7S41.81,22.68,41.12,23.6Z"/><path class="cls-2" d="M130.59,4.49,149.91,0H118.75V31.87h31.16l-19.32-4.48ZM127.2,27.38h-5.11V10.9h5.11Zm0-18.9h-5.11v-4h5.11Z"/><polygon class="cls-2" points="112.48 31.87 112.48 24.9 98.95 24.9 98.95 19.3 110.51 19.3 110.51 12.32 98.95 12.32 98.95 7 112.48 7 112.48 0.02 91.29 0.02 91.29 31.87 112.48 31.87"/><polygon class="cls-2" points="84.99 31.87 84.99 0.02 77.46 0.02 70.44 14.06 63.44 0.02 55.93 0.02 55.93 31.87 63.59 31.87 63.59 16.62 68.01 24.49 72.91 24.49 77.34 16.62 77.34 31.87 84.99 31.87"/><path class="cls-2" d="M147.74,28.79v-13q0-6.51,0-13l-3.15.65-2.84.6V15.88Q140,13,138.41,10.32l-3-5-1.81.38-1.69.36V25.62l1.93.38,2.11.43V15.79l3,5.62,3.41,6.33,2.54.5Z"/><path class="cls-2" d="M46.64,3.43A10.88,10.88,0,0,0,38.8,0H37.42a10.91,10.91,0,0,0-7.84,3.42c-3.14,3.21-3.14,7.22-3.14,12.51s0,9.29,3.14,12.51a11.07,11.07,0,0,0,8.53,3.44,11.05,11.05,0,0,0,8.53-3.44c3.14-3.22,3.14-7.23,3.14-12.51S49.78,6.65,46.64,3.43ZM41.12,23.6a3.82,3.82,0,0,1-1.34,1,3.93,3.93,0,0,1-3.33,0,3.77,3.77,0,0,1-1.35-1c-.7-.92-1.12-1.93-1.12-7.66s.42-6.78,1.12-7.7a4,4,0,0,1,6,0c.69.92,1.13,2,1.13,7.7S41.81,22.68,41.12,23.6Z"/><path class="cls-2" d="M23.26,21.67H15.59C15.1,23.43,14.17,25,11.67,25a3.61,3.61,0,0,1-3-1.33c-.69-.92-1.17-2-1.17-7.75S8,9.12,8.7,8.2a3.58,3.58,0,0,1,3-1.33c2.5,0,3.44,1.59,3.92,3.35h7.67C22.14,3.31,17.49,0,11.68,0A11.08,11.08,0,0,0,3.15,3.44C0,6.65,0,10.66,0,16s0,9.28,3.15,12.51a11.08,11.08,0,0,0,8.53,3.43C17.48,31.88,22.13,28.58,23.26,21.67Z"/></g></g></svg>